#N canvas 306 111 1348 770 12;
#X obj 170 33 keyboard 17 80 4 3 0 0 empty empty;
#X obj 170 137 unpack;
#X floatatom 170 192 5 0 0 0 - - -;
#X floatatom 222 191 5 0 0 0 - - -;
#X obj 170 226 mtof;
#X floatatom 170 261 5 0 0 0 - - -;
#X obj 327 153 select 0;
#X obj 331 229 vline~;
#X obj 330 263 s~ env;
#X obj 197 360 *~ 1;
#X obj 197 392 osc~;
#X obj 198 428 *~;
#X obj 248 396 r~ env;
#X obj 165 543 *~ 0.3;
#X obj 163 603 out~;
#X obj 197 463 *~ 1;
#X obj 330 395 osc~;
#X obj 331 431 *~;
#X obj 381 399 r~ env;
#X obj 445 395 osc~;
#X obj 446 431 *~;
#X obj 496 399 r~ env;
#X obj 555 391 osc~;
#X obj 556 427 *~;
#X obj 606 395 r~ env;
#X obj 680 393 osc~;
#X obj 681 429 *~;
#X obj 731 397 r~ env;
#X obj 797 396 osc~;
#X obj 798 432 *~;
#X obj 848 400 r~ env;
#X obj 330 363 *~ 2;
#X obj 445 363 *~ 3;
#X obj 555 359 *~ 4;
#X obj 680 361 *~ 5;
#X obj 797 364 *~ 6;
#X msg 310 189 0 1000;
#X msg 388 190 1 20;
#X obj 81 394 osc~;
#X obj 82 430 *~;
#X obj 132 398 r~ env;
#X obj 81 362 *~ 0.5;
#X obj 81 465 *~ 0.13;
#X obj 330 466 *~ 0.42;
#X obj 445 466 *~ 0.12;
#X obj 555 462 *~ 0.14;
#X obj 680 464 *~ 0.07;
#X obj 797 467 *~ 0.04;
#X connect 0 0 1 0;
#X connect 1 0 2 0;
#X connect 1 1 3 0;
#X connect 2 0 4 0;
#X connect 3 0 6 0;
#X connect 4 0 5 0;
#X connect 5 0 9 0;
#X connect 5 0 32 0;
#X connect 5 0 33 0;
#X connect 5 0 34 0;
#X connect 5 0 35 0;
#X connect 5 0 31 0;
#X connect 5 0 41 0;
#X connect 6 0 36 0;
#X connect 6 1 37 0;
#X connect 7 0 8 0;
#X connect 9 0 10 0;
#X connect 10 0 11 0;
#X connect 11 0 15 0;
#X connect 12 0 11 1;
#X connect 13 0 14 0;
#X connect 13 0 14 1;
#X connect 15 0 13 0;
#X connect 16 0 17 0;
#X connect 17 0 43 0;
#X connect 18 0 17 1;
#X connect 19 0 20 0;
#X connect 20 0 44 0;
#X connect 21 0 20 1;
#X connect 22 0 23 0;
#X connect 23 0 45 0;
#X connect 24 0 23 1;
#X connect 25 0 26 0;
#X connect 26 0 46 0;
#X connect 27 0 26 1;
#X connect 28 0 29 0;
#X connect 29 0 47 0;
#X connect 30 0 29 1;
#X connect 31 0 16 0;
#X connect 32 0 19 0;
#X connect 33 0 22 0;
#X connect 34 0 25 0;
#X connect 35 0 28 0;
#X connect 36 0 7 0;
#X connect 37 0 7 0;
#X connect 38 0 39 0;
#X connect 39 0 42 0;
#X connect 40 0 39 1;
#X connect 41 0 38 0;
#X connect 42 0 13 0;
#X connect 43 0 13 0;
#X connect 44 0 13 0;
#X connect 45 0 13 0;
#X connect 46 0 13 0;
#X connect 47 0 13 0;
