#N canvas -8 -8 1920 997 12;
#X obj 29 203 soundfiler;
#N canvas 0 50 450 250 (subpatch) 0;
#X array Canal_1 2.23803e+007 float 2;
#X coords 0 1 2.23803e+007 -1 1000 146 1 0 0;
#X restore 885 34 graph;
#N canvas 0 50 450 250 (subpatch) 0;
#X array Canal_2 2.23803e+007 float 2;
#X coords 0 1 2.23803e+007 -1 1000 140 1 0 0;
#X restore 883 233 graph;
#X floatatom 29 240 10 0 0 0 - - -;
#X msg 29 142 read -resize \$1 Canal_1 Canal_2;
#X obj 29 106 openpanel;
#X obj 29 57 bng 30 250 50 0 empty empty empty 17 7 0 10 -257985 -1
-1;
#X obj 328 379 tabread4~ Canal_1;
#X obj 370 339 vline~;
#X obj 368 56 bng 30 250 50 0 empty empty empty 17 7 0 10 -4034 -1
-1;
#X obj 370 258 pack f f f;
#X obj 440 130 r end;
#X msg 370 300 \$1 \, \$2 \$3;
#X obj 623 159 hsl 128 15 0.5 2 0 0 empty empty empty -2 -8 0 10 -228856
-1 -1 3700 1;
#X floatatom 620 192 5 0 0 0 - - -;
#X obj 876 445 hsl 1000 15 0 2.23803e+007 0 0 empty empty empty -2
-8 0 10 -204786 -1 -1 0 1;
#X obj 873 488 s start;
#X obj 382 212 f;
#X obj 400 94 r start;
#X msg 807 399 range 0 \$1;
#X msg 513 302 stop;
#X obj 439 175 expr abs($f2 - $f1) / 48;
#X obj 875 529 hsl 1000 15 0 2.23803e+007 0 0 empty empty empty -2
-8 0 10 -261234 -1 -1 99900 1;
#X obj 872 572 s end;
#X obj 29 275 s end;
#X obj 90 276 s end1;
#X obj 806 360 r end1;
#X obj 518 380 tabread4~ Canal_2;
#X obj 498 932 out~;
#X obj 513 55 bng 30 250 50 0 empty empty empty 17 7 0 10 -258113 -1
-1;
#X text 364 28 Play;
#X text 510 26 Stop;
#X text 620 126 Velocidade de reprodução;
#X text 900 421 Ponto de início;
#X text 903 508 Ponto de fim;
#X obj 452 226 / 1;
#X text 29 30 Abrir arquivo (.wav 48 kHz);
#X obj 547 435 hsl 128 15 0 1 0 0 empty empty empty -2 -8 0 10 -228856
-1 -1 12700 1;
#X obj 519 505 *~ 1;
#X floatatom 544 473 5 0 0 0 - - -;
#X obj 357 435 hsl 128 15 0 1 0 0 empty empty empty -2 -8 0 10 -228856
-1 -1 12700 1;
#X obj 329 505 *~ 1;
#X floatatom 354 473 5 0 0 0 - - -;
#X text 543 412 Volume canal direito;
#X text 350 412 Volume canal esquerdo;
#X floatatom 577 591 5 0 0 0 - - -;
#X floatatom 635 630 5 0 0 0 - - -;
#X obj 580 556 hsl 128 15 1 2200 0 0 empty empty empty -2 -8 0 10 -228856
-1 -1 2300 1;
#X obj 638 599 hsl 128 15 0 10 0 0 empty empty empty -2 -8 0 10 -228856
-1 -1 1200 1;
#X obj 577 631 sig~;
#X obj 519 668 vcf~, f 17;
#X floatatom 567 737 5 0 0 0 - - -;
#X text 632 578 Intensidade;
#X text 575 533 Grave - Agudo;
#X obj 570 711 hsl 128 15 1 6 0 0 empty empty empty -2 -8 0 10 -228856
-1 -1 0 1;
#X text 564 690 Ampliar;
#X obj 39 417 osc~;
#X obj 40 443 +~ 1;
#X obj 41 472 /~ 2;
#X obj 123 362 vsl 15 128 1 40 0 0 empty empty empty 0 -9 0 10 -228856
-1 -1 900 1;
#X obj 41 528 *~;
#X floatatom 39 390 5 0 0 0 - - -;
#X text 37 319 Speed;
#X text 146 391 Width;
#X obj 41 560 +~;
#X obj 211 360 vsl 15 128 0 200 0 0 empty empty empty 0 -9 0 10 -228856
-1 -1 5300 1;
#X text 234 389 Delay;
#X obj 41 672 *~;
#X obj 191 580 hsl 128 15 0 1 0 0 empty empty empty -2 -8 0 10 -228856
-1 -1 6800 1;
#X floatatom 188 618 5 0 0 0 - - -;
#X floatatom 123 499 5 0 0 0 - - -;
#X floatatom 211 496 5 0 0 0 - - -;
#X obj 171 780 metro 20;
#X obj 171 804 snapshot~;
#X obj 171 749 tgl 15 0 empty empty empty 17 7 0 10 -262144 -1 -1 1
1;
#X obj 174 833 hsl 128 15 0 200 0 0 empty empty empty -2 -8 0 10 -262144
-1 -1 5539 1;
#X text 187 557 Wet;
#X obj 42 339 hsl 128 15 0 15 0 0 empty empty empty -2 -8 0 10 -228856
-1 -1 200 1;
#X msg 976 617 roomsize \$1;
#X msg 971 699 damping \$1;
#X text 985 595 tamanho;
#X text 986 675 amortecimento;
#X msg 970 784 width \$1;
#X text 984 760 abertura estereo;
#X msg 969 869 wet \$1;
#X msg 971 944 dry \$1;
#X text 986 844 reverberado;
#X text 987 921 seco;
#X obj 979 573 hsl 60 20 0.1 1.1 0 0 empty empty empty -2 -8 0 10 -262130
-1 -1 4000 1;
#X floatatom 916 595 5 0 0 0 - - -;
#X obj 974 658 hsl 60 20 0 1 0 0 empty empty empty -2 -8 0 10 -262130
-1 -1 4300 1;
#X floatatom 911 680 5 0 0 0 - - -;
#X obj 973 742 hsl 60 20 0 1 0 0 empty empty empty -2 -8 0 10 -262130
-1 -1 600 1;
#X floatatom 909 768 5 0 0 0 - - -;
#X obj 972 828 hsl 60 20 0.1 1.1 0 0 empty empty empty -2 -8 0 10 -262130
-1 -1 2900 1;
#X floatatom 906 852 5 0 0 0 - - -;
#X obj 974 903 hsl 60 20 0.1 1.1 0 0 empty empty empty -2 -8 0 10 -262130
-1 -1 5900 1;
#X floatatom 908 927 5 0 0 0 - - -;
#X obj 509 857 freeverb~;
#X obj 754 500 lfo, f 11;
#X floatatom 754 472 5 0 0 0 - - -;
#X obj 518 762 *~ 1;
#X obj 577 503 delwrite~ flangerD 1000;
#X obj 42 606 delread4~ flangerD;
#X obj 328 710 vcf~, f 17;
#X obj 327 780 *~ 1;
#X obj 348 555 delwrite~ flangerE 1000;
#X obj 109 649 delread4~ flangerE;
#X obj 172 700 *~;
#X obj 1165 880 *~;
#X floatatom 1377 911 5 0 0 0 - - -;
#X obj 1380 877 hsl 128 15 0 2 0 0 empty empty empty -2 -8 0 10 -228856
-1 -1 500 1;
#X text 1378 856 Volume;
#X obj 1155 936 dac~;
#X obj 1141 790 readsf~;
#X text 1139 726 Vinil;
#X obj 1142 695 readsf~;
#X text 1140 631 Hum;
#X obj 1514 692 readsf~;
#X obj 1514 791 readsf~;
#X text 1241 578 Efeitos;
#X text 1512 628 White noise;
#X text 1512 727 Brown Noise;
#X msg 1633 679 stop;
#X msg 1634 775 stop;
#X msg 1228 681 stop;
#X msg 1232 778 stop;
#X obj 1141 829 *~ 0.4;
#X obj 754 531 rescale 100 400;
#X msg 1142 656 open ./Lo\ fi\ Noise/Hum.wav \, 2;
#X msg 1141 751 open ./Lo\ fi\ Noise/Vinylizer.wav \, 2;
#X msg 1514 653 open ./Lo\ fi\ Noise/His.wav \, 2;
#X msg 1514 752 open ./Lo\ fi\ Noise/2000\ Mechanical\ Noise.wav \,
2;
#X connect 0 0 3 0;
#X connect 3 0 24 0;
#X connect 3 0 25 0;
#X connect 4 0 0 0;
#X connect 5 0 4 0;
#X connect 6 0 5 0;
#X connect 7 0 41 0;
#X connect 8 0 7 0;
#X connect 8 0 27 0;
#X connect 9 0 17 0;
#X connect 9 0 21 0;
#X connect 9 0 10 0;
#X connect 9 0 35 0;
#X connect 10 0 12 0;
#X connect 11 0 10 1;
#X connect 11 0 21 1;
#X connect 12 0 8 0;
#X connect 13 0 14 0;
#X connect 14 0 35 1;
#X connect 15 0 16 0;
#X connect 17 0 10 0;
#X connect 18 0 17 1;
#X connect 18 0 21 0;
#X connect 19 0 15 0;
#X connect 19 0 22 0;
#X connect 20 0 8 0;
#X connect 21 0 35 0;
#X connect 22 0 23 0;
#X connect 26 0 19 0;
#X connect 27 0 38 0;
#X connect 29 0 20 0;
#X connect 35 0 10 2;
#X connect 37 0 39 0;
#X connect 38 0 50 0;
#X connect 38 0 102 0;
#X connect 39 0 38 1;
#X connect 40 0 42 0;
#X connect 41 0 104 0;
#X connect 41 0 106 0;
#X connect 42 0 41 1;
#X connect 45 0 49 0;
#X connect 46 0 50 2;
#X connect 46 0 104 2;
#X connect 47 0 45 0;
#X connect 48 0 46 0;
#X connect 49 0 50 1;
#X connect 49 0 104 1;
#X connect 50 0 101 0;
#X connect 51 0 101 1;
#X connect 51 0 105 1;
#X connect 54 0 51 0;
#X connect 56 0 57 0;
#X connect 57 0 58 0;
#X connect 58 0 60 0;
#X connect 59 0 70 0;
#X connect 60 0 64 0;
#X connect 61 0 56 0;
#X connect 64 0 73 0;
#X connect 64 0 103 0;
#X connect 64 0 107 0;
#X connect 65 0 71 0;
#X connect 67 0 50 0;
#X connect 68 0 69 0;
#X connect 69 0 67 1;
#X connect 69 0 108 1;
#X connect 70 0 60 1;
#X connect 71 0 64 1;
#X connect 72 0 73 0;
#X connect 73 0 75 0;
#X connect 74 0 72 0;
#X connect 77 0 61 0;
#X connect 78 0 98 0;
#X connect 79 0 98 0;
#X connect 82 0 98 0;
#X connect 84 0 98 0;
#X connect 85 0 98 0;
#X connect 88 0 89 0;
#X connect 88 0 78 0;
#X connect 90 0 91 0;
#X connect 90 0 79 0;
#X connect 92 0 93 0;
#X connect 92 0 82 0;
#X connect 94 0 95 0;
#X connect 94 0 84 0;
#X connect 96 0 97 0;
#X connect 96 0 85 0;
#X connect 98 0 28 0;
#X connect 98 1 28 1;
#X connect 99 0 128 0;
#X connect 100 0 99 0;
#X connect 101 0 98 1;
#X connect 103 0 67 0;
#X connect 104 0 105 0;
#X connect 105 0 98 0;
#X connect 107 0 108 0;
#X connect 108 0 104 0;
#X connect 109 0 113 0;
#X connect 109 0 113 1;
#X connect 110 0 109 1;
#X connect 111 0 110 0;
#X connect 114 0 127 0;
#X connect 114 1 130 0;
#X connect 116 0 109 0;
#X connect 116 1 129 0;
#X connect 118 0 109 0;
#X connect 118 1 131 0;
#X connect 119 0 109 0;
#X connect 119 1 132 0;
#X connect 123 0 118 0;
#X connect 124 0 119 0;
#X connect 125 0 116 0;
#X connect 126 0 114 0;
#X connect 127 0 109 0;
#X connect 129 0 116 0;
#X connect 130 0 114 0;
#X connect 131 0 118 0;
#X connect 132 0 119 0;
