#N canvas 1111 186 669 621 12;
#X obj 51 322 osc~ 440;
#X obj 51 403 *~ 0.1;
#X obj 50 438 dac~;
#X floatatom 127 370 5 0 0 0 - - -;
#X floatatom 51 293 5 0 0 0 - - -;
#X obj 52 120 vsl 15 128 50 2000 0 0 empty empty Frequência 0 -9 0
10 -204800 -1 -1 1524 1;
#X obj 127 121 vsl 15 128 0 1 0 0 empty empty Amplitude 0 -9 0 10 -204786
-1 -1 100 1;
#X obj 51 80 random 2000;
#X obj 51 38 bng 30 250 50 0 empty empty Trigger 0 -10 0 10 -260097
-1 -1;
#X obj 176 289 tgl 30 0 empty empty Mutar 0 -10 0 10 -232576 -1 -1
0 1;
#X obj 175 336 select 1;
#X connect 0 0 1 0;
#X connect 1 0 2 0;
#X connect 3 0 1 1;
#X connect 4 0 0 0;
#X connect 5 0 4 0;
#X connect 6 0 3 0;
#X connect 6 0 9 0;
#X connect 7 0 5 0;
#X connect 8 0 7 0;
#X connect 9 0 10 0;
#X connect 10 0 6 0;
#X connect 10 1 3 0;
