#N canvas 116 196 1214 738 12;
#X obj 126 175 lop~;
#X obj 171 247 *~;
#X obj 208 116 hsl 128 15 20 20000 1 0 empty empty empty -2 -8 0 10
-191407 -1 -1 6100 1;
#X floatatom 205 154 5 0 0 0 - - -;
#X obj 208 197 hsl 64 15 0 1 0 0 empty empty empty -2 -8 0 10 -191407
-1 -1 6300 1;
#X floatatom 204 221 5 0 0 0 - - -;
#X obj 139 323 out~;
#X obj 303 283 graph~;
#X obj 559 283 spectrograph~;
#X obj 123 124 noise~;
#X connect 0 0 1 0;
#X connect 1 0 6 0;
#X connect 1 0 6 1;
#X connect 1 0 7 0;
#X connect 1 0 8 0;
#X connect 2 0 3 0;
#X connect 3 0 0 1;
#X connect 4 0 5 0;
#X connect 5 0 1 1;
#X connect 9 0 0 0;
