#N canvas 284 78 744 818 12;
#X obj 41 32 keyboard 17 80 4 3 0 0 empty empty;
#X obj 41 145 unpack, f 22;
#X floatatom 41 179 5 0 0 0 - - -;
#X floatatom 405 196 5 0 0 0 - - -;
#X obj 41 211 mtof;
#X floatatom 41 272 5 0 0 0 - - -;
#X obj 41 303 phasor~;
#X obj 39 748 out~;
#X obj 141 271 phasor~;
#X obj 161 210 hsl 35 15 0 8 0 0 empty empty empty -2 -8 0 10 -228856
-1 -1 1700 1;
#X obj 44 473 +~;
#X obj 141 239 +~;
#X obj 390 640 adsr~, f 25;
#X obj 427 543 vsl 15 60 0 1000 0 0 empty empty empty 0 -9 0 10 -228856
-1 -1 1003 1;
#X obj 405 231 / 127;
#X floatatom 406 265 5 0 0 0 - - -;
#X floatatom 428 614 5 0 0 0 - - -;
#X obj 471 542 vsl 15 60 0 1000 0 0 empty empty empty 0 -9 0 10 -228856
-1 -1 4720 1;
#X floatatom 472 613 5 0 0 0 - - -;
#X obj 518 541 vsl 15 60 0 1 0 0 empty empty empty 0 -9 0 10 -228856
-1 -1 4130 1;
#X floatatom 519 612 5 0 0 0 - - -;
#X obj 565 541 vsl 15 60 0 1000 0 0 empty empty empty 0 -9 0 10 -228856
-1 -1 1180 1;
#X floatatom 566 612 5 0 0 0 - - -;
#X obj 40 668 *~;
#X obj 391 688 s2f~;
#X obj 391 722 vsl 15 60 0 1 0 0 empty empty empty 0 -9 0 10 -228856
-1 -1 0 1;
#X obj 522 286 adsr~, f 25;
#X obj 559 189 vsl 15 60 0 1000 0 0 empty empty empty 0 -9 0 10 -228856
-1 -1 885 1;
#X floatatom 560 260 5 0 0 0 - - -;
#X obj 603 188 vsl 15 60 0 1000 0 0 empty empty empty 0 -9 0 10 -228856
-1 -1 3953 1;
#X floatatom 604 259 5 0 0 0 - - -;
#X obj 650 187 vsl 15 60 0 1 0 0 empty empty empty 0 -9 0 10 -228856
-1 -1 2950 1;
#X floatatom 651 258 5 0 0 0 - - -;
#X obj 697 187 vsl 15 60 0 1000 0 0 empty empty empty 0 -9 0 10 -228856
-1 -1 1003 1;
#X floatatom 698 258 5 0 0 0 - - -;
#X obj 523 334 s2f~;
#X obj 523 368 vsl 15 60 0 1 0 0 empty empty empty 0 -9 0 10 -228856
-1 -1 0 1;
#X obj 101 540 s2f~;
#X obj 150 384 hsl 128 15 0 2000 0 0 empty empty empty -2 -8 0 10 -204786
-1 -1 2100 1;
#X floatatom 147 409 5 0 0 0 - - -;
#X text 163 359 delay;
#X obj 140 310 delwrite~ buffer 5000;
#X obj 147 438 delread~ buffer 0;
#X msg 427 501 170;
#X msg 471 502 800;
#X msg 518 502 0.7;
#X msg 564 502 200;
#X msg 559 152 150;
#X msg 603 151 670;
#X msg 696 151 170;
#X obj 45 584 lop~, f 8;
#X msg 651 151 0.5;
#X msg 146 336 330;
#X text 50 495 filtro passa baixa;
#X text 56 606 resolvi colcoar apenas um filtro e remover o freeverb
para simplificar um pouco o som;
#X obj 428 448 rescale~ 100 2000;
#X msg 157 178 4;
#X connect 0 0 1 0;
#X connect 1 0 2 0;
#X connect 1 1 3 0;
#X connect 2 0 4 0;
#X connect 3 0 14 0;
#X connect 4 0 5 0;
#X connect 4 0 11 0;
#X connect 5 0 6 0;
#X connect 6 0 10 0;
#X connect 8 0 41 0;
#X connect 9 0 11 1;
#X connect 10 0 50 0;
#X connect 11 0 8 0;
#X connect 12 0 23 1;
#X connect 12 0 24 0;
#X connect 13 0 16 0;
#X connect 14 0 15 0;
#X connect 15 0 12 0;
#X connect 15 0 26 0;
#X connect 16 0 12 1;
#X connect 17 0 18 0;
#X connect 18 0 12 2;
#X connect 19 0 20 0;
#X connect 20 0 12 3;
#X connect 21 0 22 0;
#X connect 22 0 12 4;
#X connect 23 0 7 0;
#X connect 23 0 7 1;
#X connect 24 0 25 0;
#X connect 26 0 35 0;
#X connect 26 0 55 0;
#X connect 27 0 28 0;
#X connect 28 0 26 1;
#X connect 29 0 30 0;
#X connect 30 0 26 2;
#X connect 31 0 32 0;
#X connect 32 0 26 3;
#X connect 33 0 34 0;
#X connect 34 0 26 4;
#X connect 35 0 36 0;
#X connect 37 0 50 1;
#X connect 38 0 39 0;
#X connect 39 0 42 0;
#X connect 42 0 10 1;
#X connect 43 0 13 0;
#X connect 44 0 17 0;
#X connect 45 0 19 0;
#X connect 46 0 21 0;
#X connect 47 0 27 0;
#X connect 48 0 29 0;
#X connect 49 0 33 0;
#X connect 50 0 23 0;
#X connect 51 0 31 0;
#X connect 52 0 38 0;
#X connect 55 0 37 0;
#X connect 56 0 9 0;
