#N canvas 514 99 1122 771 12;
#X obj 82 399 osc~;
#X obj 82 635 out~;
#X obj 79 39 keyboard 17 80 4 3 0 0 empty empty;
#X obj 80 153 display;
#X obj 80 192 unpack;
#X floatatom 81 233 5 0 0 0 - - -;
#X floatatom 133 234 5 0 0 0 - - -;
#X obj 81 271 mtof;
#X floatatom 81 310 5 0 0 0 - - -;
#X obj 231 148 select 0;
#X obj 256 236 vline~;
#X msg 308 191 1 20;
#X msg 232 190 0 1000;
#X obj 257 269 s~ env;
#X obj 82 448 *~;
#X obj 82 365 *~ 1;
#X obj 123 401 r~ env;
#X obj 83 516 *~;
#X obj 146 426 vsl 15 50 0 1 0 0 empty empty empty 0 -9 0 10 -228856
-1 -1 2300 1;
#X floatatom 144 493 5 0 0 0 - - -;
#X obj 210 399 osc~;
#X obj 210 448 *~;
#X obj 251 401 r~ env;
#X obj 211 516 *~;
#X obj 274 426 vsl 15 50 0 1 0 0 empty empty empty 0 -9 0 10 -228856
-1 -1 1100 1;
#X floatatom 272 493 5 0 0 0 - - -;
#X obj 332 405 osc~;
#X obj 332 454 *~;
#X obj 373 407 r~ env;
#X obj 333 522 *~;
#X obj 396 432 vsl 15 50 0 1 0 0 empty empty empty 0 -9 0 10 -228856
-1 -1 3200 1;
#X floatatom 394 499 5 0 0 0 - - -;
#X obj 466 401 osc~;
#X obj 466 450 *~;
#X obj 507 403 r~ env;
#X obj 467 518 *~;
#X obj 530 428 vsl 15 50 0 1 0 0 empty empty empty 0 -9 0 10 -228856
-1 -1 4300 1;
#X floatatom 528 495 5 0 0 0 - - -;
#X obj 588 401 osc~;
#X obj 588 450 *~;
#X obj 629 403 r~ env;
#X obj 589 518 *~;
#X obj 652 428 vsl 15 50 0 1 0 0 empty empty empty 0 -9 0 10 -228856
-1 -1 4100 1;
#X floatatom 650 495 5 0 0 0 - - -;
#X obj 719 398 osc~;
#X obj 719 447 *~;
#X obj 760 400 r~ env;
#X obj 720 515 *~;
#X obj 783 425 vsl 15 50 0 1 0 0 empty empty empty 0 -9 0 10 -228856
-1 -1 3400 1;
#X floatatom 781 492 5 0 0 0 - - -;
#X obj 83 581 *~ 0.3;
#X obj 837 397 osc~;
#X obj 837 446 *~;
#X obj 878 399 r~ env;
#X obj 838 514 *~;
#X obj 901 424 vsl 15 50 0 1 0 0 empty empty empty 0 -9 0 10 -228856
-1 -1 3000 1;
#X floatatom 899 491 5 0 0 0 - - -;
#X obj 956 394 osc~;
#X obj 956 443 *~;
#X obj 997 396 r~ env;
#X obj 957 511 *~;
#X obj 1020 421 vsl 15 50 0 1 0 0 empty empty empty 0 -9 0 10 -228856
-1 -1 2500 1;
#X floatatom 1018 488 5 0 0 0 - - -;
#X obj 286 621 graph~;
#X obj 547 619 spectrograph~;
#X obj 209 365 *~ 3.92;
#X obj 332 371 *~ 5.3;
#X obj 466 367 *~ 7.41;
#X obj 588 367 *~ 13.2;
#X obj 719 364 *~ 22.42;
#X obj 837 363 *~ 34.6;
#X obj 956 360 *~ 48.29;
#X connect 0 0 14 0;
#X connect 2 0 3 0;
#X connect 3 0 4 0;
#X connect 4 0 5 0;
#X connect 4 1 6 0;
#X connect 5 0 7 0;
#X connect 6 0 9 0;
#X connect 7 0 8 0;
#X connect 8 0 15 0;
#X connect 8 0 65 0;
#X connect 8 0 66 0;
#X connect 8 0 67 0;
#X connect 8 0 68 0;
#X connect 8 0 69 0;
#X connect 8 0 70 0;
#X connect 8 0 71 0;
#X connect 9 0 12 0;
#X connect 9 1 11 0;
#X connect 10 0 13 0;
#X connect 11 0 10 0;
#X connect 12 0 10 0;
#X connect 14 0 17 0;
#X connect 15 0 0 0;
#X connect 16 0 14 1;
#X connect 17 0 50 0;
#X connect 18 0 19 0;
#X connect 19 0 17 1;
#X connect 20 0 21 0;
#X connect 21 0 23 0;
#X connect 22 0 21 1;
#X connect 23 0 50 0;
#X connect 24 0 25 0;
#X connect 25 0 23 1;
#X connect 26 0 27 0;
#X connect 27 0 29 0;
#X connect 28 0 27 1;
#X connect 29 0 50 0;
#X connect 30 0 31 0;
#X connect 31 0 29 1;
#X connect 32 0 33 0;
#X connect 33 0 35 0;
#X connect 34 0 33 1;
#X connect 35 0 50 0;
#X connect 36 0 37 0;
#X connect 37 0 35 1;
#X connect 38 0 39 0;
#X connect 39 0 41 0;
#X connect 40 0 39 1;
#X connect 41 0 50 0;
#X connect 42 0 43 0;
#X connect 43 0 41 1;
#X connect 44 0 45 0;
#X connect 45 0 47 0;
#X connect 46 0 45 1;
#X connect 47 0 50 0;
#X connect 48 0 49 0;
#X connect 49 0 47 1;
#X connect 50 0 1 0;
#X connect 50 0 1 1;
#X connect 50 0 63 0;
#X connect 50 0 64 0;
#X connect 51 0 52 0;
#X connect 52 0 54 0;
#X connect 53 0 52 1;
#X connect 54 0 50 0;
#X connect 55 0 56 0;
#X connect 56 0 54 1;
#X connect 57 0 58 0;
#X connect 58 0 60 0;
#X connect 59 0 58 1;
#X connect 60 0 50 0;
#X connect 61 0 62 0;
#X connect 62 0 60 1;
#X connect 65 0 20 0;
#X connect 66 0 26 0;
#X connect 67 0 32 0;
#X connect 68 0 38 0;
#X connect 69 0 44 0;
#X connect 70 0 51 0;
#X connect 71 0 57 0;
